<?xml version="1.0" encoding="utf-8"?>
<!-- Generator: Adobe Illustrator 27.1.1, SVG Export Plug-In . SVG Version: 6.00 Build 0)  -->
<svg version="1.1" id="Warstwa_1" xmlns="http://www.w3.org/2000/svg" xmlns:xlink="http://www.w3.org/1999/xlink" x="0px" y="0px"
	 viewBox="0 0 1055 277" style="enable-background:new 0 0 1055 277;" xml:space="preserve">
<style type="text/css">
	.st0{fill:#E40421;}
	.st1{enable-background:new    ;}
	.st2{fill:#151515;}
</style>
<g id="_16._LOGO_-_Sprawdzaj" transform="translate(-58.5 -123.002)">
	<g id="Group_4465" transform="translate(58.5 123.002)">
		<path id="Path_7369" class="st0" d="M61,214.6c0,0-5,4.9,0,9.9l36.1,36c0,0,5,5,9.9,0l36.1-36c0,0,5-5,0-9.9l-36.1-36.1
			c0,0-5-5-9.9,0L61,214.6z"/>
		<path id="Path_7370" class="st0" d="M48.2,119.7c0,0-5-5-9.9,0l-36.1,36c0,0-5,5,0,9.9l36.1,36c0,0,5,5,9.9,0l36.1-36
			c0,0,5-5,0-9.9L48.2,119.7z"/>
		<path id="Path_7371" class="st0" d="M119.7,155.8c0,0-5,5,0,9.9l36,36c0,0,5,5,9.9,0l36.1-36c0,0,5-5,0-9.9l-36.1-36.1
			c0,0-5-5-9.9,0L119.7,155.8z"/>
		<path id="Path_7372" class="st0" d="M237.3,38.2c0,0-5,5,0,9.9l36.1,36.1c0,0,5,5,9.9,0l36.1-36.1c0,0,5-5,0-9.9l-36.1-36
			c0,0-5-4.9-9.9,0L237.3,38.2z"/>
		<path id="Path_7373" class="st0" d="M178.5,97c0,0-5,5,0,9.9l36,36.1c0,0,4.9,4.9,9.9,0l36.1-36.1c0,0,5-5,0-9.9l-36.1-36
			c0,0-5-5-9.9,0L178.5,97z"/>
	</g>
	<g class="st1">
		<path class="st2" d="M361.1,310.9c28.6,0,39.8,9,39.8,27.7c0,20-14.8,31.1-41.4,31.1c-17.6,0-30.9-4.5-39.1-13.2
			c-1.8-1.8-2.8-4.3-2.8-7.6c0-5.6,3.8-9.7,9.8-9.7c2.2,0,4.3,0.7,6.6,2.5c6.7,5.9,16.2,9.1,27,9.1c11.9,0,18.8-4.2,18.8-11.5
			c0-6-4.9-8.7-21.7-8.8c-28.3-0.3-39.1-8.8-39.1-27c0-19,15.8-31.1,41-31.1c14,0,25.2,3.5,33.2,10.2c2.2,1.8,3.6,4.6,3.6,8.3
			c0,5.6-3.8,9.7-9.8,9.7c-2.2,0-4.2-0.7-6.3-2.2c-6.4-4.8-13.9-7.1-22.3-7.1c-11.1,0-18.3,4.5-18.3,11.5
			C340.1,308.4,345.1,310.9,361.1,310.9z"/>
		<path class="st2" d="M481.2,334.4c0,21.4-12.9,35.3-32.3,35.3c-8.8,0-16-3.1-20.7-8.4h-0.3v23.4c0,6.3-3.6,10.2-9.7,10.2
			c-5.9,0-9.5-3.9-9.5-10.2V310c0-6.3,3.6-10.1,9.5-10.1c5.2,0,8.7,2.8,9.5,7.7h0.3c4.8-5.5,11.9-8.5,20.9-8.5
			C468.3,299.1,481.2,313,481.2,334.4z M461.6,334.4c0-10.6-6.9-17.8-16.7-17.8c-9.9,0-17.1,7.4-17.1,17.8
			c0,10.4,7.1,17.8,17.1,17.8C454.8,352.2,461.6,344.9,461.6,334.4z"/>
		<path class="st2" d="M537.5,309.1c0,5.9-3.9,9.5-9.5,9.5c-12.2,0-19,5.5-19,20v20c0,6.3-3.6,10.2-9.7,10.2
			c-5.9,0-9.5-3.9-9.5-10.2V310c0-6.3,3.6-10.1,9.5-10.1s9.5,3.6,9.7,9.5h0.3c3.9-6.6,10.2-9.9,18.8-9.9
			C533.6,299.5,537.5,303,537.5,309.1z"/>
		<path class="st2" d="M608.3,310v48.6c0,6.3-3.6,10.2-9.7,10.2c-5,0-8.5-2.9-9.4-7.8H589c-4.8,5.6-11.9,8.7-20.9,8.7
			c-19.5,0-32.3-13.9-32.3-35.3s12.9-35.3,32.3-35.3c9,0,16.1,3.1,20.9,8.7h0.3c0.8-5,4.3-7.8,9.4-7.8
			C604.7,300,608.3,303.7,608.3,310z M589.2,334.4c0-10.4-7.1-17.8-17.1-17.8c-9.8,0-16.7,7.1-16.7,17.8c0,10.5,6.9,17.8,16.7,17.8
			C582,352.2,589.2,344.8,589.2,334.4z"/>
		<path class="st2" d="M718.8,309.2c0,1.7-0.4,3.5-1.3,5.6l-19.3,47c-1.8,4.6-5.2,7-9.5,7c-4.3,0-7.8-2.4-9.7-7l-13-32.3h-0.3
			l-12.9,32.3c-1.8,4.6-5.3,7-9.7,7c-4.5,0-8-2.4-9.8-7l-19.2-46.8c-0.8-2.1-1.3-3.9-1.3-5.6c0-5.7,4.1-9.5,9.7-9.5
			c4.5,0,7.4,2.4,9,6.6l12.2,33.6h0.3l13.4-33.6c1.7-4.3,4.8-6.6,8.7-6.6c4.3,0,7.1,2.4,8.8,6.6l13.4,33.3h0.3l12-33.3
			c1.5-4.1,4.6-6.6,8.7-6.6C714.9,300,718.8,303.7,718.8,309.2z"/>
		<path class="st2" d="M792.9,279.4v79.2c0,6.3-3.6,10.2-9.7,10.2c-5,0-8.5-2.9-9.4-7.8h-0.3c-4.8,5.6-11.9,8.7-20.9,8.7
			c-19.5,0-32.3-13.9-32.3-35.3s12.9-35.3,32.3-35.3c9,0,16.1,3.1,20.7,8.5h0.3v-28.3c0-6.3,3.6-10.2,9.5-10.2
			C789.2,269.2,792.9,273.1,792.9,279.4z M773.7,334.4c0-10.4-7.1-17.8-17.1-17.8c-9.8,0-16.7,7.1-16.7,17.8
			c0,10.5,6.9,17.8,16.7,17.8C766.5,352.2,773.7,344.8,773.7,334.4z"/>
		<path class="st2" d="M855.6,350.5c5.9,0,9.4,3.2,9.4,8.7s-3.5,8.8-9.4,8.8h-45.5c-6.4,0-10.4-3.9-10.4-9.4c0-3.8,1.4-6.6,4.5-9.5
			l32.2-30.8h-25.2c-5.9,0-9.4-3.2-9.4-8.8c0-5.5,3.5-8.7,9.4-8.7h42.7c6.4,0,10.4,3.8,10.4,9.4c0,3.5-1.1,6.3-4.1,9.2l-32.6,31.1
			H855.6z"/>
		<path class="st2" d="M940.6,310v48.6c0,6.3-3.6,10.2-9.7,10.2c-5,0-8.5-2.9-9.4-7.8h-0.3c-4.8,5.6-11.9,8.7-20.9,8.7
			c-19.5,0-32.3-13.9-32.3-35.3s12.9-35.3,32.3-35.3c9,0,16.1,3.1,20.9,8.7h0.3c0.8-5,4.3-7.8,9.4-7.8
			C936.9,300,940.6,303.7,940.6,310z M921.4,334.4c0-10.4-7.1-17.8-17.1-17.8c-9.8,0-16.7,7.1-16.7,17.8c0,10.5,6.9,17.8,16.7,17.8
			C914.2,352.2,921.4,344.8,921.4,334.4z"/>
		<path class="st2" d="M973,310v60.9c0,15.7-8.4,23.9-22.4,23.9h-1.4c-5.9,0-9.4-3.4-9.4-8.8s3.5-8.7,8.8-8.7c3.4,0,5.2-2.1,5.2-7
			V310c0-6.3,3.6-10.1,9.5-10.1C969.4,300,973,303.7,973,310z M952.6,280.2c0-6.6,4.3-10.8,10.8-10.8c6.6,0,10.9,4.2,10.9,10.8
			s-4.3,11.1-10.9,11.1C956.9,291.3,952.6,286.8,952.6,280.2z"/>
	</g>
	<g class="st1">
		<path class="st2" d="M986.9,363.7c0-2.9,2.1-5,5.2-5s5,2.1,5,5c0,3.1-2,5.2-5,5.2S986.9,366.7,986.9,363.7z"/>
		<path class="st2" d="M1020.6,304.6v9.7h0.3c5.5-9.2,15.5-14.6,28.6-14.6c20.2,0,33.9,14.1,33.9,35c0,20.9-13.7,35-33.9,35
			c-13,0-23.1-5.3-28.6-14.6h-0.3V391c0,2.4-1.3,3.9-3.5,3.9c-2.4,0-3.6-1.5-3.6-3.9v-86.4c0-2.5,1.3-4.1,3.6-4.1
			C1019.4,300.5,1020.6,302.1,1020.6,304.6z M1076.1,334.7c0-16.8-11.1-28.3-27.6-28.3c-16.4,0-27.9,11.5-27.9,28.3
			c0,16.7,11.5,28.3,27.9,28.3C1065,363,1076.1,351.5,1076.1,334.7z"/>
		<path class="st2" d="M1102.9,273.1v91.8c0,2.4-1.3,3.9-3.6,3.9c-2.2,0-3.5-1.5-3.5-3.9v-91.8c0-2.4,1.3-3.9,3.5-3.9
			C1101.7,269.2,1102.9,270.7,1102.9,273.1z"/>
	</g>
</g>
</svg>
